<mxfile host="app.diagrams.net" modified="2023-05-28T11:45:35.716Z" agent="Mozilla/5.0 (Windows NT 10.0; Win64; x64) AppleWebKit/537.36 (KHTML, like Gecko) Chrome/113.0.0.0 Safari/537.36" etag="ieWcHRJ6LYn28z39bxvl" version="21.3.5" type="device" pages="3">
  <diagram name="Page-1" id="0783ab3e-0a74-02c8-0abd-f7b4e66b4bec">
    <mxGraphModel dx="1335" dy="627" grid="1" gridSize="10" guides="1" tooltips="1" connect="1" arrows="1" fold="1" page="1" pageScale="1" pageWidth="850" pageHeight="1100" background="none" math="0" shadow="0">
      <root>
        <mxCell id="0" />
        <mxCell id="1" parent="0" />
        <mxCell id="1c1d494c118603dd-1" value="SISTEM LOGIN" style="swimlane;html=1;childLayout=stackLayout;startSize=20;rounded=0;shadow=0;comic=0;labelBackgroundColor=none;strokeWidth=3;fontFamily=Verdana;fontSize=12;align=center;fillColor=#0050ef;strokeColor=#001DBC;fontColor=#ffffff;" parent="1" vertex="1">
          <mxGeometry x="40" y="58" width="690" height="810" as="geometry" />
        </mxCell>
        <mxCell id="1c1d494c118603dd-2" value="ADMIN" style="swimlane;html=1;startSize=20;strokeWidth=3;fillColor=#0050ef;fontColor=#ffffff;strokeColor=#001DBC;" parent="1c1d494c118603dd-1" vertex="1">
          <mxGeometry y="20" width="350" height="790" as="geometry" />
        </mxCell>
        <mxCell id="mDsHhue77o-EXMvBKB7T-7" style="edgeStyle=orthogonalEdgeStyle;rounded=0;orthogonalLoop=1;jettySize=auto;html=1;entryX=0.5;entryY=0;entryDx=0;entryDy=0;strokeWidth=3;" edge="1" parent="1c1d494c118603dd-2" source="mDsHhue77o-EXMvBKB7T-1" target="mDsHhue77o-EXMvBKB7T-4">
          <mxGeometry relative="1" as="geometry" />
        </mxCell>
        <mxCell id="mDsHhue77o-EXMvBKB7T-1" value="&lt;font style=&quot;font-size: 18px;&quot;&gt;Mulai&lt;/font&gt;" style="strokeWidth=3;html=1;shape=mxgraph.flowchart.terminator;whiteSpace=wrap;spacing=2;fillColor=#b1ddf0;strokeColor=#10739e;" vertex="1" parent="1c1d494c118603dd-2">
          <mxGeometry x="80" y="62" width="190" height="78" as="geometry" />
        </mxCell>
        <mxCell id="mDsHhue77o-EXMvBKB7T-3" value="&lt;font style=&quot;font-size: 14px;&quot;&gt;Input&lt;br&gt;username&lt;br&gt;dan&lt;br&gt;password&lt;/font&gt;" style="shape=parallelogram;html=1;strokeWidth=3;perimeter=parallelogramPerimeter;whiteSpace=wrap;rounded=1;arcSize=12;size=0.23;fillColor=#b1ddf0;strokeColor=#10739e;" vertex="1" parent="1c1d494c118603dd-2">
          <mxGeometry x="70" y="352" width="210" height="78" as="geometry" />
        </mxCell>
        <mxCell id="mDsHhue77o-EXMvBKB7T-6" style="edgeStyle=orthogonalEdgeStyle;rounded=0;orthogonalLoop=1;jettySize=auto;html=1;strokeWidth=3;" edge="1" parent="1c1d494c118603dd-2" source="mDsHhue77o-EXMvBKB7T-4" target="mDsHhue77o-EXMvBKB7T-3">
          <mxGeometry relative="1" as="geometry" />
        </mxCell>
        <mxCell id="mDsHhue77o-EXMvBKB7T-4" value="&lt;font style=&quot;font-size: 18px;&quot;&gt;Login&lt;/font&gt;" style="verticalLabelPosition=middle;verticalAlign=middle;html=1;shape=trapezoid;perimeter=trapezoidPerimeter;whiteSpace=wrap;size=0.23;arcSize=10;flipV=1;labelPosition=center;align=center;strokeWidth=3;fillColor=#b1ddf0;strokeColor=#10739e;" vertex="1" parent="1c1d494c118603dd-2">
          <mxGeometry x="75" y="202" width="200" height="88" as="geometry" />
        </mxCell>
        <mxCell id="1c1d494c118603dd-3" value="SISTEM" style="swimlane;html=1;startSize=20;strokeWidth=3;fillColor=#0050ef;strokeColor=#001DBC;fontColor=#ffffff;" parent="1c1d494c118603dd-1" vertex="1">
          <mxGeometry x="350" y="20" width="340" height="790" as="geometry" />
        </mxCell>
        <mxCell id="mDsHhue77o-EXMvBKB7T-11" style="edgeStyle=orthogonalEdgeStyle;rounded=0;orthogonalLoop=1;jettySize=auto;html=1;strokeWidth=3;" edge="1" parent="1c1d494c118603dd-3" source="mDsHhue77o-EXMvBKB7T-8" target="mDsHhue77o-EXMvBKB7T-10">
          <mxGeometry relative="1" as="geometry" />
        </mxCell>
        <mxCell id="mDsHhue77o-EXMvBKB7T-8" value="&lt;font style=&quot;font-size: 16px;&quot;&gt;Data&lt;br&gt;valid?&lt;/font&gt;" style="strokeWidth=3;html=1;shape=mxgraph.flowchart.decision;whiteSpace=wrap;fillColor=#b1ddf0;strokeColor=#10739e;" vertex="1" parent="1c1d494c118603dd-3">
          <mxGeometry x="110" y="329.25" width="140" height="123.5" as="geometry" />
        </mxCell>
        <mxCell id="mDsHhue77o-EXMvBKB7T-13" style="edgeStyle=orthogonalEdgeStyle;rounded=0;orthogonalLoop=1;jettySize=auto;html=1;entryX=0.5;entryY=0;entryDx=0;entryDy=0;entryPerimeter=0;strokeWidth=3;" edge="1" parent="1c1d494c118603dd-3" source="mDsHhue77o-EXMvBKB7T-10" target="mDsHhue77o-EXMvBKB7T-12">
          <mxGeometry relative="1" as="geometry" />
        </mxCell>
        <mxCell id="mDsHhue77o-EXMvBKB7T-10" value="&lt;font style=&quot;font-size: 17px;&quot;&gt;Login berhasil&lt;/font&gt;" style="rounded=1;whiteSpace=wrap;html=1;absoluteArcSize=1;arcSize=14;strokeWidth=3;fillColor=#b1ddf0;strokeColor=#10739e;" vertex="1" parent="1c1d494c118603dd-3">
          <mxGeometry x="95" y="512" width="170" height="98" as="geometry" />
        </mxCell>
        <mxCell id="mDsHhue77o-EXMvBKB7T-12" value="&lt;font style=&quot;font-size: 18px;&quot;&gt;Selesai&lt;/font&gt;" style="strokeWidth=3;html=1;shape=mxgraph.flowchart.terminator;whiteSpace=wrap;spacing=2;fillColor=#b1ddf0;strokeColor=#10739e;" vertex="1" parent="1c1d494c118603dd-3">
          <mxGeometry x="85" y="672" width="190" height="78" as="geometry" />
        </mxCell>
        <mxCell id="mDsHhue77o-EXMvBKB7T-18" value="&lt;font size=&quot;1&quot; style=&quot;&quot;&gt;&lt;b style=&quot;font-size: 14px;&quot;&gt;YA&lt;/b&gt;&lt;/font&gt;" style="text;html=1;align=center;verticalAlign=middle;resizable=0;points=[];autosize=1;strokeColor=none;fillColor=none;" vertex="1" parent="1c1d494c118603dd-3">
          <mxGeometry x="179" y="462" width="40" height="30" as="geometry" />
        </mxCell>
        <mxCell id="mDsHhue77o-EXMvBKB7T-9" style="edgeStyle=orthogonalEdgeStyle;rounded=0;orthogonalLoop=1;jettySize=auto;html=1;strokeWidth=3;" edge="1" parent="1c1d494c118603dd-1" source="mDsHhue77o-EXMvBKB7T-3" target="mDsHhue77o-EXMvBKB7T-8">
          <mxGeometry relative="1" as="geometry" />
        </mxCell>
        <mxCell id="mDsHhue77o-EXMvBKB7T-14" value="" style="endArrow=none;html=1;rounded=0;exitX=0.5;exitY=0;exitDx=0;exitDy=0;exitPerimeter=0;strokeWidth=3;" edge="1" parent="1">
          <mxGeometry width="50" height="50" relative="1" as="geometry">
            <mxPoint x="570" y="412.25" as="sourcePoint" />
            <mxPoint x="570" y="325" as="targetPoint" />
          </mxGeometry>
        </mxCell>
        <mxCell id="mDsHhue77o-EXMvBKB7T-16" value="" style="endArrow=classic;html=1;rounded=0;strokeWidth=3;" edge="1" parent="1" target="mDsHhue77o-EXMvBKB7T-4">
          <mxGeometry width="50" height="50" relative="1" as="geometry">
            <mxPoint x="570" y="325" as="sourcePoint" />
            <mxPoint x="290" y="325" as="targetPoint" />
          </mxGeometry>
        </mxCell>
        <mxCell id="mDsHhue77o-EXMvBKB7T-17" value="&lt;font size=&quot;1&quot; style=&quot;&quot;&gt;&lt;b style=&quot;font-size: 14px;&quot;&gt;TIDAK&lt;/b&gt;&lt;/font&gt;" style="text;html=1;align=center;verticalAlign=middle;resizable=0;points=[];autosize=1;strokeColor=none;fillColor=none;" vertex="1" parent="1">
          <mxGeometry x="509" y="296" width="70" height="30" as="geometry" />
        </mxCell>
      </root>
    </mxGraphModel>
  </diagram>
  <diagram name="Copy of Page-1" id="WOtjgMk7FPM5FO8CjDdw">
    <mxGraphModel dx="1335" dy="627" grid="1" gridSize="10" guides="1" tooltips="1" connect="1" arrows="1" fold="1" page="1" pageScale="1" pageWidth="850" pageHeight="1100" background="none" math="0" shadow="0">
      <root>
        <mxCell id="Usw-icBaAL5oTUM9X-vo-0" />
        <mxCell id="Usw-icBaAL5oTUM9X-vo-1" parent="Usw-icBaAL5oTUM9X-vo-0" />
        <mxCell id="Usw-icBaAL5oTUM9X-vo-2" value="SISTEM CETAK LAPORAM" style="swimlane;html=1;childLayout=stackLayout;startSize=20;rounded=0;shadow=0;comic=0;labelBackgroundColor=none;strokeWidth=3;fontFamily=Verdana;fontSize=12;align=center;fillColor=#0050ef;strokeColor=#001DBC;fontColor=#ffffff;" vertex="1" parent="Usw-icBaAL5oTUM9X-vo-1">
          <mxGeometry x="40" y="58" width="690" height="680" as="geometry" />
        </mxCell>
        <mxCell id="Usw-icBaAL5oTUM9X-vo-3" value="ADMIN" style="swimlane;html=1;startSize=20;strokeWidth=3;fillColor=#0050ef;fontColor=#ffffff;strokeColor=#001DBC;" vertex="1" parent="Usw-icBaAL5oTUM9X-vo-2">
          <mxGeometry y="20" width="350" height="660" as="geometry" />
        </mxCell>
        <mxCell id="Usw-icBaAL5oTUM9X-vo-4" style="edgeStyle=orthogonalEdgeStyle;rounded=0;orthogonalLoop=1;jettySize=auto;html=1;entryX=0.5;entryY=0;entryDx=0;entryDy=0;strokeWidth=3;" edge="1" parent="Usw-icBaAL5oTUM9X-vo-3" source="Usw-icBaAL5oTUM9X-vo-5" target="Usw-icBaAL5oTUM9X-vo-8">
          <mxGeometry relative="1" as="geometry" />
        </mxCell>
        <mxCell id="Usw-icBaAL5oTUM9X-vo-5" value="&lt;font style=&quot;font-size: 18px;&quot;&gt;Mulai&lt;/font&gt;" style="strokeWidth=3;html=1;shape=mxgraph.flowchart.terminator;whiteSpace=wrap;spacing=2;fillColor=#b1ddf0;strokeColor=#10739e;" vertex="1" parent="Usw-icBaAL5oTUM9X-vo-3">
          <mxGeometry x="80" y="62" width="190" height="78" as="geometry" />
        </mxCell>
        <mxCell id="wgbq1-0NzpYd2OgKwbuV-2" style="edgeStyle=orthogonalEdgeStyle;rounded=0;orthogonalLoop=1;jettySize=auto;html=1;strokeWidth=3;" edge="1" parent="Usw-icBaAL5oTUM9X-vo-3" source="Usw-icBaAL5oTUM9X-vo-8" target="wgbq1-0NzpYd2OgKwbuV-0">
          <mxGeometry relative="1" as="geometry" />
        </mxCell>
        <mxCell id="Usw-icBaAL5oTUM9X-vo-8" value="&lt;span style=&quot;font-size: 18px;&quot;&gt;Pilih &lt;br&gt;Menu Laporan&lt;br&gt;&lt;/span&gt;" style="verticalLabelPosition=middle;verticalAlign=middle;html=1;shape=trapezoid;perimeter=trapezoidPerimeter;whiteSpace=wrap;size=0.23;arcSize=10;flipV=1;labelPosition=center;align=center;strokeWidth=3;fillColor=#b1ddf0;strokeColor=#10739e;" vertex="1" parent="Usw-icBaAL5oTUM9X-vo-3">
          <mxGeometry x="75" y="212" width="200" height="88" as="geometry" />
        </mxCell>
        <mxCell id="wgbq1-0NzpYd2OgKwbuV-0" value="&lt;span style=&quot;font-size: 18px;&quot;&gt;Cetak Laporan&lt;br&gt;Keuangan&lt;br&gt;&lt;/span&gt;" style="verticalLabelPosition=middle;verticalAlign=middle;html=1;shape=trapezoid;perimeter=trapezoidPerimeter;whiteSpace=wrap;size=0.23;arcSize=10;flipV=1;labelPosition=center;align=center;strokeWidth=3;fillColor=#b1ddf0;strokeColor=#10739e;" vertex="1" parent="Usw-icBaAL5oTUM9X-vo-3">
          <mxGeometry x="75" y="362" width="200" height="88" as="geometry" />
        </mxCell>
        <mxCell id="Usw-icBaAL5oTUM9X-vo-9" value="SISTEM" style="swimlane;html=1;startSize=20;strokeWidth=3;fillColor=#0050ef;strokeColor=#001DBC;fontColor=#ffffff;" vertex="1" parent="Usw-icBaAL5oTUM9X-vo-2">
          <mxGeometry x="350" y="20" width="340" height="660" as="geometry" />
        </mxCell>
        <mxCell id="Usw-icBaAL5oTUM9X-vo-12" style="edgeStyle=orthogonalEdgeStyle;rounded=0;orthogonalLoop=1;jettySize=auto;html=1;entryX=0.5;entryY=0;entryDx=0;entryDy=0;entryPerimeter=0;strokeWidth=3;" edge="1" parent="Usw-icBaAL5oTUM9X-vo-9" target="Usw-icBaAL5oTUM9X-vo-14">
          <mxGeometry relative="1" as="geometry">
            <mxPoint x="180" y="455" as="sourcePoint" />
          </mxGeometry>
        </mxCell>
        <mxCell id="Usw-icBaAL5oTUM9X-vo-14" value="&lt;font style=&quot;font-size: 18px;&quot;&gt;Selesai&lt;/font&gt;" style="strokeWidth=3;html=1;shape=mxgraph.flowchart.terminator;whiteSpace=wrap;spacing=2;fillColor=#b1ddf0;strokeColor=#10739e;" vertex="1" parent="Usw-icBaAL5oTUM9X-vo-9">
          <mxGeometry x="85" y="542" width="190" height="78" as="geometry" />
        </mxCell>
        <mxCell id="TzcZ1eJjz4iL3TISi1G3-0" value="&lt;font style=&quot;font-size: 18px;&quot;&gt;Laporan&lt;br style=&quot;border-color: var(--border-color);&quot;&gt;Berhasil&lt;br style=&quot;border-color: var(--border-color);&quot;&gt;Dicetak&lt;/font&gt;" style="strokeWidth=2;html=1;shape=mxgraph.flowchart.document2;whiteSpace=wrap;size=0.25;fillColor=#b1ddf0;strokeColor=#10739e;" vertex="1" parent="Usw-icBaAL5oTUM9X-vo-9">
          <mxGeometry x="93.5" y="362" width="175" height="108" as="geometry" />
        </mxCell>
        <mxCell id="wgbq1-0NzpYd2OgKwbuV-3" style="edgeStyle=orthogonalEdgeStyle;rounded=0;orthogonalLoop=1;jettySize=auto;html=1;strokeWidth=3;" edge="1" parent="Usw-icBaAL5oTUM9X-vo-2" source="wgbq1-0NzpYd2OgKwbuV-0">
          <mxGeometry relative="1" as="geometry">
            <mxPoint x="445" y="426" as="targetPoint" />
          </mxGeometry>
        </mxCell>
      </root>
    </mxGraphModel>
  </diagram>
  <diagram name="Copy of Page-1" id="gjpv--e7vvr_ttl5OcNV">
    <mxGraphModel dx="1335" dy="627" grid="1" gridSize="10" guides="1" tooltips="1" connect="1" arrows="1" fold="1" page="1" pageScale="1" pageWidth="850" pageHeight="1100" background="none" math="0" shadow="0">
      <root>
        <mxCell id="tsSg01xek6xseJMayrUr-0" />
        <mxCell id="tsSg01xek6xseJMayrUr-1" parent="tsSg01xek6xseJMayrUr-0" />
        <mxCell id="tsSg01xek6xseJMayrUr-2" value="SISTEM INPUT PENDAPATAN DAN PENGELUARAN UANG" style="swimlane;html=1;childLayout=stackLayout;startSize=20;rounded=0;shadow=0;comic=0;labelBackgroundColor=none;strokeWidth=3;fontFamily=Verdana;fontSize=12;align=center;fillColor=#0050ef;strokeColor=#001DBC;fontColor=#ffffff;" vertex="1" parent="tsSg01xek6xseJMayrUr-1">
          <mxGeometry x="40" y="58" width="720" height="980" as="geometry" />
        </mxCell>
        <mxCell id="tsSg01xek6xseJMayrUr-3" value="ADMIN" style="swimlane;html=1;startSize=20;strokeWidth=3;fillColor=#0050ef;strokeColor=#001DBC;fontColor=#ffffff;" vertex="1" parent="tsSg01xek6xseJMayrUr-2">
          <mxGeometry y="20" width="350" height="960" as="geometry" />
        </mxCell>
        <mxCell id="tsSg01xek6xseJMayrUr-4" style="edgeStyle=orthogonalEdgeStyle;rounded=0;orthogonalLoop=1;jettySize=auto;html=1;entryX=0.5;entryY=0;entryDx=0;entryDy=0;strokeWidth=3;" edge="1" parent="tsSg01xek6xseJMayrUr-3" source="tsSg01xek6xseJMayrUr-5" target="tsSg01xek6xseJMayrUr-8">
          <mxGeometry relative="1" as="geometry" />
        </mxCell>
        <mxCell id="tsSg01xek6xseJMayrUr-5" value="&lt;font style=&quot;font-size: 18px;&quot;&gt;Mulai&lt;/font&gt;" style="strokeWidth=3;html=1;shape=mxgraph.flowchart.terminator;whiteSpace=wrap;spacing=2;fillColor=#b1ddf0;strokeColor=#10739e;" vertex="1" parent="tsSg01xek6xseJMayrUr-3">
          <mxGeometry x="80" y="62" width="190" height="78" as="geometry" />
        </mxCell>
        <mxCell id="tsSg01xek6xseJMayrUr-6" value="&lt;font style=&quot;font-size: 15px;&quot;&gt;Input tanggal,&lt;br&gt;jumlah, dan sumber&lt;br&gt;&lt;/font&gt;" style="shape=parallelogram;html=1;strokeWidth=3;perimeter=parallelogramPerimeter;whiteSpace=wrap;rounded=1;arcSize=12;size=0.23;fillColor=#b1ddf0;strokeColor=#10739e;" vertex="1" parent="tsSg01xek6xseJMayrUr-3">
          <mxGeometry x="70" y="502" width="210" height="88" as="geometry" />
        </mxCell>
        <mxCell id="qYLeB8TRprGevQRNLryO-2" style="edgeStyle=orthogonalEdgeStyle;rounded=0;orthogonalLoop=1;jettySize=auto;html=1;strokeWidth=3;" edge="1" parent="tsSg01xek6xseJMayrUr-3" source="tsSg01xek6xseJMayrUr-8" target="qYLeB8TRprGevQRNLryO-1">
          <mxGeometry relative="1" as="geometry" />
        </mxCell>
        <mxCell id="tsSg01xek6xseJMayrUr-8" value="&lt;font style=&quot;font-size: 16px;&quot;&gt;&lt;font style=&quot;font-size: 16px;&quot;&gt;Pilih menu&lt;br&gt;Pendapatan&lt;br&gt;&lt;/font&gt;atau&lt;br&gt;Pengeluaran&lt;br&gt;&lt;/font&gt;" style="verticalLabelPosition=middle;verticalAlign=middle;html=1;shape=trapezoid;perimeter=trapezoidPerimeter;whiteSpace=wrap;size=0.23;arcSize=10;flipV=1;labelPosition=center;align=center;strokeWidth=3;fillColor=#b1ddf0;strokeColor=#10739e;" vertex="1" parent="tsSg01xek6xseJMayrUr-3">
          <mxGeometry x="75" y="202" width="200" height="88" as="geometry" />
        </mxCell>
        <mxCell id="qYLeB8TRprGevQRNLryO-4" style="edgeStyle=orthogonalEdgeStyle;rounded=0;orthogonalLoop=1;jettySize=auto;html=1;strokeWidth=3;" edge="1" parent="tsSg01xek6xseJMayrUr-3" source="qYLeB8TRprGevQRNLryO-1" target="tsSg01xek6xseJMayrUr-6">
          <mxGeometry relative="1" as="geometry" />
        </mxCell>
        <mxCell id="qYLeB8TRprGevQRNLryO-1" value="&lt;font style=&quot;font-size: 16px;&quot;&gt;Tambah&lt;br&gt;Pendapatan&lt;br&gt;atau&amp;nbsp;&lt;br&gt;Pengeluaran&lt;br&gt;&lt;/font&gt;" style="verticalLabelPosition=middle;verticalAlign=middle;html=1;shape=trapezoid;perimeter=trapezoidPerimeter;whiteSpace=wrap;size=0.23;arcSize=10;flipV=1;labelPosition=center;align=center;strokeWidth=3;fillColor=#b1ddf0;strokeColor=#10739e;" vertex="1" parent="tsSg01xek6xseJMayrUr-3">
          <mxGeometry x="75" y="351" width="200" height="88" as="geometry" />
        </mxCell>
        <mxCell id="NQkR3X9IqaSrVqAOHS9y-4" value="" style="endArrow=classic;html=1;rounded=0;entryX=0.463;entryY=1.011;entryDx=0;entryDy=0;entryPerimeter=0;strokeWidth=3;" edge="1" parent="tsSg01xek6xseJMayrUr-3" target="tsSg01xek6xseJMayrUr-6">
          <mxGeometry width="50" height="50" relative="1" as="geometry">
            <mxPoint x="167" y="642" as="sourcePoint" />
            <mxPoint x="180" y="692" as="targetPoint" />
          </mxGeometry>
        </mxCell>
        <mxCell id="tsSg01xek6xseJMayrUr-9" value="SISTEM" style="swimlane;html=1;startSize=20;strokeWidth=3;fillColor=#0050ef;strokeColor=#001DBC;fontColor=#ffffff;" vertex="1" parent="tsSg01xek6xseJMayrUr-2">
          <mxGeometry x="350" y="20" width="370" height="960" as="geometry" />
        </mxCell>
        <mxCell id="HPYCAJ1xCHvNSnDDUMxK-17" style="edgeStyle=orthogonalEdgeStyle;rounded=0;orthogonalLoop=1;jettySize=auto;html=1;strokeWidth=3;" edge="1" parent="tsSg01xek6xseJMayrUr-9" source="tsSg01xek6xseJMayrUr-11" target="HPYCAJ1xCHvNSnDDUMxK-16">
          <mxGeometry relative="1" as="geometry" />
        </mxCell>
        <mxCell id="tsSg01xek6xseJMayrUr-11" value="&lt;font style=&quot;font-size: 17px;&quot;&gt;Cek data&lt;/font&gt;" style="strokeWidth=3;html=1;shape=mxgraph.flowchart.decision;whiteSpace=wrap;fillColor=#b1ddf0;strokeColor=#10739e;" vertex="1" parent="tsSg01xek6xseJMayrUr-9">
          <mxGeometry x="125" y="492" width="140" height="123.5" as="geometry" />
        </mxCell>
        <mxCell id="NQkR3X9IqaSrVqAOHS9y-0" style="edgeStyle=orthogonalEdgeStyle;rounded=0;orthogonalLoop=1;jettySize=auto;html=1;strokeWidth=3;" edge="1" parent="tsSg01xek6xseJMayrUr-9" source="tsSg01xek6xseJMayrUr-13" target="tsSg01xek6xseJMayrUr-11">
          <mxGeometry relative="1" as="geometry" />
        </mxCell>
        <mxCell id="tsSg01xek6xseJMayrUr-13" value="&lt;font style=&quot;font-size: 18px;&quot;&gt;Data dikirim ke&lt;br&gt;database&lt;br&gt;&lt;/font&gt;" style="rounded=1;whiteSpace=wrap;html=1;absoluteArcSize=1;arcSize=14;strokeWidth=3;fillColor=#b1ddf0;strokeColor=#10739e;" vertex="1" parent="tsSg01xek6xseJMayrUr-9">
          <mxGeometry x="110" y="322" width="170" height="98" as="geometry" />
        </mxCell>
        <mxCell id="riRzuJTC6xFq23VNeiuW-1" value="" style="endArrow=none;html=1;rounded=0;strokeWidth=3;" edge="1" parent="tsSg01xek6xseJMayrUr-9">
          <mxGeometry width="50" height="50" relative="1" as="geometry">
            <mxPoint x="-30" y="552" as="sourcePoint" />
            <mxPoint x="-30" y="372" as="targetPoint" />
          </mxGeometry>
        </mxCell>
        <mxCell id="NQkR3X9IqaSrVqAOHS9y-1" value="" style="endArrow=none;html=1;rounded=0;strokeWidth=3;entryX=0;entryY=0.5;entryDx=0;entryDy=0;entryPerimeter=0;" edge="1" parent="tsSg01xek6xseJMayrUr-9" target="tsSg01xek6xseJMayrUr-11">
          <mxGeometry width="50" height="50" relative="1" as="geometry">
            <mxPoint x="90" y="554" as="sourcePoint" />
            <mxPoint x="90" y="553.25" as="targetPoint" />
          </mxGeometry>
        </mxCell>
        <mxCell id="HPYCAJ1xCHvNSnDDUMxK-18" style="edgeStyle=orthogonalEdgeStyle;rounded=0;orthogonalLoop=1;jettySize=auto;html=1;strokeWidth=3;" edge="1" parent="tsSg01xek6xseJMayrUr-9" source="HPYCAJ1xCHvNSnDDUMxK-16" target="tsSg01xek6xseJMayrUr-14">
          <mxGeometry relative="1" as="geometry" />
        </mxCell>
        <mxCell id="HPYCAJ1xCHvNSnDDUMxK-16" value="&lt;font style=&quot;font-size: 18px;&quot;&gt;Data berhasil&lt;br&gt;ditambahkan&lt;br&gt;&lt;/font&gt;" style="rounded=1;whiteSpace=wrap;html=1;absoluteArcSize=1;arcSize=14;strokeWidth=3;fillColor=#b1ddf0;strokeColor=#10739e;" vertex="1" parent="tsSg01xek6xseJMayrUr-9">
          <mxGeometry x="110" y="672" width="170" height="98" as="geometry" />
        </mxCell>
        <mxCell id="tsSg01xek6xseJMayrUr-19" value="&lt;font size=&quot;1&quot; style=&quot;&quot;&gt;&lt;b style=&quot;font-size: 14px;&quot;&gt;TIDAK&lt;/b&gt;&lt;/font&gt;" style="text;html=1;align=center;verticalAlign=middle;resizable=0;points=[];autosize=1;strokeColor=none;fillColor=none;" vertex="1" parent="tsSg01xek6xseJMayrUr-9">
          <mxGeometry x="70" y="522" width="70" height="30" as="geometry" />
        </mxCell>
        <mxCell id="tsSg01xek6xseJMayrUr-15" value="&lt;font size=&quot;1&quot; style=&quot;&quot;&gt;&lt;b style=&quot;font-size: 14px;&quot;&gt;YA&lt;/b&gt;&lt;/font&gt;" style="text;html=1;align=center;verticalAlign=middle;resizable=0;points=[];autosize=1;strokeColor=none;fillColor=none;" vertex="1" parent="tsSg01xek6xseJMayrUr-9">
          <mxGeometry x="191" y="625" width="40" height="30" as="geometry" />
        </mxCell>
        <mxCell id="tsSg01xek6xseJMayrUr-14" value="&lt;font style=&quot;font-size: 18px;&quot;&gt;Selesai&lt;/font&gt;" style="strokeWidth=3;html=1;shape=mxgraph.flowchart.terminator;whiteSpace=wrap;spacing=2;fillColor=#b1ddf0;strokeColor=#10739e;" vertex="1" parent="tsSg01xek6xseJMayrUr-9">
          <mxGeometry x="100" y="822" width="190" height="78" as="geometry" />
        </mxCell>
        <mxCell id="riRzuJTC6xFq23VNeiuW-0" value="" style="endArrow=none;html=1;rounded=0;exitX=0.857;exitY=0.568;exitDx=0;exitDy=0;exitPerimeter=0;strokeWidth=3;" edge="1" parent="tsSg01xek6xseJMayrUr-1" source="tsSg01xek6xseJMayrUr-6">
          <mxGeometry width="50" height="50" relative="1" as="geometry">
            <mxPoint x="330" y="630" as="sourcePoint" />
            <mxPoint x="360" y="630" as="targetPoint" />
          </mxGeometry>
        </mxCell>
        <mxCell id="riRzuJTC6xFq23VNeiuW-3" value="" style="endArrow=classic;html=1;rounded=0;entryX=0;entryY=0.5;entryDx=0;entryDy=0;strokeWidth=3;" edge="1" parent="tsSg01xek6xseJMayrUr-1" target="tsSg01xek6xseJMayrUr-13">
          <mxGeometry width="50" height="50" relative="1" as="geometry">
            <mxPoint x="360" y="449" as="sourcePoint" />
            <mxPoint x="450" y="360" as="targetPoint" />
          </mxGeometry>
        </mxCell>
        <mxCell id="NQkR3X9IqaSrVqAOHS9y-2" value="" style="endArrow=none;html=1;rounded=0;strokeWidth=3;" edge="1" parent="tsSg01xek6xseJMayrUr-1">
          <mxGeometry width="50" height="50" relative="1" as="geometry">
            <mxPoint x="479" y="720" as="sourcePoint" />
            <mxPoint x="479" y="630" as="targetPoint" />
          </mxGeometry>
        </mxCell>
        <mxCell id="NQkR3X9IqaSrVqAOHS9y-3" value="" style="endArrow=none;html=1;rounded=0;strokeWidth=3;" edge="1" parent="tsSg01xek6xseJMayrUr-1">
          <mxGeometry width="50" height="50" relative="1" as="geometry">
            <mxPoint x="209" y="720" as="sourcePoint" />
            <mxPoint x="480" y="720" as="targetPoint" />
          </mxGeometry>
        </mxCell>
      </root>
    </mxGraphModel>
  </diagram>
</mxfile>
